<svg width="512" height="512" viewBox="0 0 512 512" fill="none" xmlns="http://www.w3.org/2000/svg">
  <!-- Background Drop -->
  <rect width="512" height="512" rx="112" fill="url(#paint0_linear_bg)"/>
  
  <!-- Shuttlecock Base (Cork) -->
  <path d="M256 384C282.51 384 304 362.51 304 336C304 309.49 256 256 256 256C256 256 208 309.49 208 336C208 362.51 229.49 384 256 384Z" fill="#FDE047"/>
  
  <!-- Shuttlecock Feathers -->
  <!-- Center Feather -->
  <path d="M256 128V288" stroke="white" stroke-width="24" stroke-linecap="round"/>
  <!-- Left Inner Feather -->
  <path d="M192 144L240 288" stroke="white" stroke-width="20" stroke-linecap="round"/>
  <!-- Right Inner Feather -->
  <path d="M320 144L272 288" stroke="white" stroke-width="20" stroke-linecap="round"/>
  <!-- Far Left Feather -->
  <path d="M144 192L232 304" stroke="white" stroke-width="20" stroke-linecap="round"/>
  <!-- Far Right Feather -->
  <path d="M368 192L280 304" stroke="white" stroke-width="20" stroke-linecap="round"/>

  <!-- Binding Strings -->
  <path d="M168 224C192 248 320 248 344 224" stroke="#93C5FD" stroke-width="8" stroke-linecap="round"/>
  <path d="M144 192C180 208 332 208 368 192" stroke="#93C5FD" stroke-width="8" stroke-linecap="round"/>
  
  <!-- Definitions -->
  <defs>
    <linearGradient id="paint0_linear_bg" x1="0" y1="0" x2="512" y2="512" gradientUnits="userSpaceOnUse">
      <stop stop-color="#3B82F6"/>
      <stop offset="1" stop-color="#1D4ED8"/>
    </linearGradient>
  </defs>
</svg>
